<?xml version="1.0" standalone="no"?> <!DOCTYPE svg PUBLIC "-//W3C//DTD SVG 1.0//EN" "http://www.w3.org/TR/2001/REC-SVG-20010904/DTD/svg10.dtd" > <svg xmlns="http://www.w3.org/2000/svg" width="100%" height="100%">
<defs >
<font id="mrseavesxlserot-bolditalic" horiz-adv-x="977" ><font-face
    font-family="MrsEavesXLSerifOT"
    units-per-em="2048"
    panose-1="2 0 6 3 7 0 0 2 0 4"
    ascent="1638"
    descent="-410"
    alphabetic="0" />
<missing-glyph horiz-adv-x="1024" />
<glyph unicode=" " glyph-name="space" horiz-adv-x="391" />
<glyph unicode="!" glyph-name="exclam" horiz-adv-x="567" d="M561 1116Q553 1073 536 1026T495 924T446 803T388 626T328 383H252Q272 516 279 628T284 802T276 927T270 1025T276 1118Q287 1181 333 1222T438 1264Q499 1264 536 1221T561 1116ZM371 113Q364
59 324 22T229 -16Q177 -16 143 22T115 113Q121 165 162 202T256 240Q310 240 343 203T371 113Z" />
<glyph unicode="&quot;" glyph-name="quotedbl" horiz-adv-x="786" d="M838 1137Q832 1107 803 1058T736 929T674 754H621Q629 833 624 897T610 1000T594 1077T592 1141Q601 1193 641 1228T731 1264Q783 1264 815 1226T838 1137ZM471 1137Q466 1107 437 1058T369
929T307 754H254Q263 850 253 929T231 1059T225 1141Q235 1193 274 1228T365 1264T448 1226T471 1137Z" />
<glyph unicode="#" glyph-name="numbersign" horiz-adv-x="821" d="M899 971L854 817H702L645 606H797L752 451H600L532 193H432L504 451H301L233 193H135L205 451H51L96 606H246L305 817H156L199 971H348L420 1229H518L446 971H647L719 1229H817L745 971H899ZM604
817H403L346 606H545L604 817Z" />
<glyph unicode="$" glyph-name="dollar" horiz-adv-x="1003" d="M999 1249L928 860H868Q862 966 817 1040T690 1141L621 745Q693 705 738 675T833 598T907 496T932 373Q932 284 906 214T836 98T733 23T613 -19T485 -31L459 -180H377L406 -20Q335 -6 274 26T174
98Q116 56 86 -14H31L111 426H170Q176 288 241 199T424 84L502 532Q432 570 385 603T294 680T230 780T209 903Q209 1058 320 1154T586 1257Q608 1262 629 1257L655 1399H737L709 1243Q761 1228 804 1202T870 1151Q916 1187 946 1249H999ZM578 492L504 76H520Q612
78 676 131T741 283Q741 348 700 396T578 492ZM612 1153Q518 1153 458 1106T397 977Q397 920 435 876T547 786L612 1153Z" />
<glyph unicode="%" glyph-name="percent" horiz-adv-x="1292" d="M1229 1225L225 -37L158 4L1161 1266L1229 1225ZM715 969Q694 847 603 762T397 676Q279 676 214 761T168 969Q189 1091 282 1177T492 1264Q607 1264 670 1178T715 969ZM557 969Q566 1030 565 1078T542
1157T477 1188Q415 1188 377 1127T324 969Q307 874 327 813T410 752Q470 752 506 812T557 969ZM1214 260Q1194 138 1103 53T897 -33Q779 -33 714 52T668 260Q688 383 781 469T991 555Q1107 555 1170 469T1214 260ZM1057 260Q1094 479 977 479Q915 479 877 419T823
260Q807 165 827 104T909 43Q1022 43 1057 260Z" />
<glyph unicode="&amp;" glyph-name="ampersand" horiz-adv-x="1325" d="M1313 514Q1310 481 1285 455T1223 432Q1188 435 1173 457T1158 503T1147 548T1110 569Q1072 569 1044 536T975 416Q970 406 952 367T920 302T891 250Q986 92 1085 92Q1146 92 1217 162L1251
111Q1205 50 1140 15T999 -20Q867 -20 752 92Q618 -20 434 -20Q359 -20 293 1T176 62T98 165T78 305Q82 364 108 416T178 512T266 587T371 653Q301 818 311 924Q317 1008 357 1075T457 1183T586 1243T725 1264Q865 1264 952 1199T1030 1036Q1022 905 868 817L801
874Q865 954 870 1024Q877 1088 836 1126T727 1165Q643 1165 592 1112T535 973Q522 853 595 710Q641 621 796 390Q825 347 838 328Q850 349 864 378T899 450T932 516Q961 577 1015 614T1143 651Q1231 651 1274 608T1313 514ZM694 154Q516 394 424 551Q301 432 301
295Q301 214 357 151T522 88Q615 88 694 154Z" />
<glyph unicode="&apos;" glyph-name="quotesingle" horiz-adv-x="419" d="M471 1137Q466 1107 437 1058T369 929T307 754H254Q263 850 253 929T231 1059T225 1141Q235 1193 274 1228T362 1264Q414 1264 447 1226T471 1137Z" />
<glyph unicode="(" glyph-name="parenleft" horiz-adv-x="624" d="M510 -184L455 -227Q82 131 166 604Q252 1095 727 1436L768 1384Q708 1329 651 1260T530 1092T416 866T340 600Q263 170 510 -184Z" />
<glyph unicode=")" glyph-name="parenright" horiz-adv-x="624" d="M205 1389L260 1432Q632 1073 549 600Q461 109 -12 -231L-53 -180Q7 -125 64 -56T185 112T299 338T375 604Q452 1036 205 1389Z" />
<glyph unicode="*" glyph-name="asterisk" horiz-adv-x="782" d="M819 1079Q836 1043 821 1003T770 940Q751 929 676 926T530 895Q579 873 627 867T708 860T758 848Q791 827 798 787T782 713Q756 678 715 667T641 676Q625 687 611 715T570 782T502 854Q503 799
517 754T544 680T555 631Q550 589 517 558T444 526Q403 526 377 557T356 631Q358 651 377 679T419 752T455 852Q417 826 387 796T342 745T311 704T279 676Q241 655 201 666T145 713Q129 748 145 787T197 848Q215 858 247 859T330 867T434 895Q385 918 337 924T256
932T209 944Q176 965 168 1004T182 1079Q207 1113 250 1124T326 1116Q342 1106 356 1078T397 1010T465 936Q464 991 450 1036T424 1111T414 1161Q417 1201 449 1232T522 1264Q562 1264 589 1233T612 1161Q610 1140 591 1111T548 1037T512 938Q561 971 595 1009T649
1076T688 1114Q725 1134 763 1124T819 1079Z" />
<glyph unicode="+" glyph-name="plus" horiz-adv-x="909" d="M874 651L854 535H547L492 225H375L428 535H121L141 651H451L506 958H623L567 651H874Z" />
<glyph unicode="," glyph-name="comma" horiz-adv-x="540" d="M354 92Q344 2 275 -96T92 -262L59 -227Q131 -161 168 -110T219 0H205Q156 0 124 37T96 125Q102 174 143 211T236 248Q291 248 327 207T354 92Z" />
<glyph unicode="-" glyph-name="hyphen" horiz-adv-x="757" d="M655 573L635 451H160L180 573H655Z" />
<glyph unicode="." glyph-name="period" horiz-adv-x="540" d="M365 117Q358 61 315 23T217 -16Q161 -16 126 23T96 117T145 211T244 250T335 211T365 117Z" />
<glyph unicode="/" glyph-name="slash" horiz-adv-x="684" d="M831 1233L35 -37L-51 -4L745 1268L831 1233Z" />
<glyph unicode="0" glyph-name="zero" horiz-adv-x="1103" d="M715 1264Q909 1264 1011 1083T1063 612Q1029 422 940 274T732 49T487 -29Q291 -29 189 153T135 625Q161 768 219 889T355 1091T526 1218T715 1264ZM815 618Q912 1161 694 1161Q581 1161 506 1026T383
618Q285 74 506 74Q722 74 815 618Z" />
<glyph unicode="1" glyph-name="one" horiz-adv-x="751" d="M649 1264L479 299Q464 221 463 177T476 105T524 68T616 59L604 0H16L29 59Q143 59 182 103T250 299L358 913Q367 965 368 1002T361 1064T340 1103T302 1125T251 1135T184 1137L195 1194L649 1264Z" />
<glyph unicode="2" glyph-name="two" horiz-adv-x="1005" d="M977 979Q977 909 949 841T860 703T738 575T578 436L285 186H614Q702 186 747 198T817 239T872 334H926L807 0H33V61L422 446Q574 597 652 725T731 975Q731 1060 685 1110T557 1161Q468 1161 413 1103T358
956Q358 902 383 864L299 784Q242 809 210 857T178 965Q178 1085 292 1174T592 1264Q772 1264 874 1183T977 979Z" />
<glyph unicode="3" glyph-name="three" horiz-adv-x="1015" d="M991 1020Q991 966 974 921T919 836T841 766T739 698L653 645Q778 615 851 539T924 354Q924 248 859 160T681 22T434 -29Q261 -29 157 43T59 190Q61 222 84 246T143 270Q165 270 182 257T206 229T226
188T246 147Q264 112 307 89T416 66Q521 66 589 142T670 352Q676 428 645 489T551 578Q536 567 510 542T463 502T424 487Q403 487 389 500T375 537Q375 560 393 579T449 625L541 686Q754 832 754 1004Q754 1075 707 1118T582 1161Q493 1161 433 1105T373 969Q373
916 393 879L303 799Q251 828 225 874T199 971Q199 1084 316 1174T618 1264Q780 1264 885 1198T991 1020Z" />
<glyph unicode="4" glyph-name="four" horiz-adv-x="1099" d="M903 1251L760 440H770Q835 440 873 446T938 472T980 517T1016 592L1034 633H1083L1008 344H743L735 299Q720 221 719 177T732 105T780 68T872 59L860 0H276L289 59Q402 59 442 103T510 299L518 344H37V399L788
1251H903ZM625 946L182 440H535L625 946Z" />
<glyph unicode="5" glyph-name="five" horiz-adv-x="974" d="M1001 1229L928 1014H383L299 694Q346 739 410 761T539 784Q715 784 812 685T893 422Q877 230 731 102T391 -27Q311 -27 245 -5T141 52T83 124T66 195Q68 231 90 255T154 279Q177 279 191 264T212 225T229
175T256 124T304 86T387 70Q499 70 566 171T647 422Q658 541 614 610T479 680Q403 680 341 637T244 502H147L342 1229H1001Z" />
<glyph unicode="6" glyph-name="six" horiz-adv-x="1038" d="M1036 1094Q1030 1062 1005 1039T946 1016Q919 1016 901 1031T870 1068T843 1112T799 1149T727 1165Q610 1165 524 1038T385 678Q425 718 500 748T647 778Q796 778 884 687T973 449Q973 344 932 254T822
102T663 6T475 -29Q426 -29 376 -16T272 32T178 122T119 269T111 479Q121 593 155 705T245 918T375 1096T543 1218T743 1264Q875 1264 962 1214T1036 1094ZM733 416Q747 537 709 607T588 678Q523 678 456 643T360 557Q273 63 487 63Q593 63 656 160T733 416Z" />
<glyph unicode="7" glyph-name="seven" horiz-adv-x="882" d="M1001 1155L670 629Q487 342 418 133Q386 40 357 5T276 -31Q238 -31 210 -2T184 74Q190 170 334 358L811 1014H457Q400 1014 362 1008T299 994T256 963T227 920T199 858L182 817H125L268 1229H1001V1155Z" />
<glyph unicode="8" glyph-name="eight" horiz-adv-x="1089" d="M1042 1001Q1039 958 1019 919T970 850T898 791T814 742T721 698Q770 672 806 648T883 589T949 517T988 432T997 330Q985 176 840 74T494 -29Q309 -29 188 67T78 301Q83 361 108 413T168 501T254
571T349 626T451 670Q253 806 266 965Q277 1097 397 1180T690 1264Q847 1264 950 1188T1042 1001ZM838 1014Q843 1080 800 1125T684 1171Q605 1171 554 1121T496 993Q492 949 502 911T535 843T582 791T639 745Q719 797 776 866T838 1014ZM549 612Q329 486 309 281Q300
188 352 127T504 66Q618 66 686 137T762 311Q767 362 753 406T706 488T637 552T549 612Z" />
<glyph unicode="9" glyph-name="nine" horiz-adv-x="1038" d="M1022 756Q1012 642 979 530T889 317T759 139T590 17T389 -29Q258 -29 171 21T96 141Q102 173 127 196T186 219Q214 219 233 204T264 166T292 123T336 86T408 70Q523 70 609 197T748 557Q707 517 632
487T485 457Q336 457 248 548T160 786Q160 925 230 1036T414 1205T659 1264Q693 1264 728 1258T803 1235T877 1193T944 1128T995 1036T1023 913T1022 756ZM772 678Q860 1171 645 1171Q539 1171 477 1074T399 819Q385 698 423 628T545 557Q609 557 676 592T772 678Z"
/>
<glyph unicode=":" glyph-name="colon" horiz-adv-x="540" d="M477 805T471 752T424 662T330 625Q276 625 242 662T213 752Q219 806 260 843T356 881Q409 881 443 843ZM356 113Q350 59 310 22T215 -16Q162 -16 128 21T100 113Q107 165 148 202T242 240T329 203T356 113Z" />
<glyph unicode=";" glyph-name="semicolon" horiz-adv-x="540" d="M354 90Q344 1 276 -96T96 -258L66 -223Q136 -158 171 -109T221 0H209Q158 0 127 36T100 123Q107 172 148 208T238 244Q293 244 328 204T354 90ZM477 805T471 752T424 662T330 625Q276 625 242
662T213 752Q219 806 260 843T356 881Q409 881 443 843Z" />
<glyph unicode="&lt;" glyph-name="less" horiz-adv-x="909" d="M920 946L350 592L795 238L723 150L143 596L881 1040L920 946Z" />
<glyph unicode="=" glyph-name="equal" horiz-adv-x="909" d="M831 793L811 676H213L233 793H831ZM782 510L762 393H164L184 510H782Z" />
<glyph unicode="&gt;" glyph-name="greater" horiz-adv-x="909" d="M274 1040L854 596L119 150L80 246L645 600L203 954L274 1040Z" />
<glyph unicode="?" glyph-name="question" horiz-adv-x="888" d="M956 1010Q956 893 876 816T604 653Q497 606 451 574T399 496Q395 459 417 439T481 418Q545 418 618 461V397Q539 342 446 342Q374 342 324 383T274 500Q274 576 333 636T516 770Q709 884 709 1014Q709
1081 661 1121T537 1161Q448 1161 388 1105T328 969Q328 912 346 879L258 799Q206 828 180 874T154 971Q154 1084 271 1174T571 1264Q737 1264 846 1198T956 1010ZM496 113Q489 59 449 22T354 -16Q302 -16 268 22T240 113Q246 165 287 202T381 240Q435 240 468
203T496 113Z" />
<glyph unicode="@" glyph-name="at" horiz-adv-x="1421" d="M1391 541Q1377 408 1304 289T1134 101T950 33Q900 33 867 59T823 125Q782 84 722 55T616 25Q530 25 476 78T412 217T430 412Q460 515 529 602T686 740T860 791Q927 791 989 758H1120L969 227Q953 171
961 146T1006 121T1090 152T1182 237T1261 370T1305 539Q1316 642 1287 727T1200 868T1063 954T893 985Q770 985 653 934T449 798T303 602T233 373Q209 125 338 -27T698 -180Q815 -180 921 -146T1145 -45L1169 -92Q916 -264 674 -264Q492 -264 349 -183T132 44T76
365Q91 511 162 644T341 874T588 1028T874 1085Q1035 1085 1158 1018T1345 826T1391 541ZM950 670Q911 713 846 713Q764 713 694 623T588 406Q571 348 566 298T568 208T598 144T662 121Q715 121 770 172T846 297L950 670Z" />
<glyph unicode="A" glyph-name="A" horiz-adv-x="1200" d="M1239 59L1229 0H623L633 59Q748 59 785 93T803 215L760 401H334L223 215Q173 132 197 96T336 59L326 0H-147L-137 59Q-39 59 8 92T123 238L723 1245H807L1047 238Q1073 126 1107 93T1239 59ZM737 494L639
922L389 494H737Z" />
<glyph unicode="B" glyph-name="B" horiz-adv-x="1198" d="M1139 922Q1125 845 1064 776T922 668Q1028 635 1088 543T1128 344Q1102 196 967 98T627 0H-14L-2 59Q112 59 151 103T219 299L332 932Q343 995 345 1033T343 1100T318 1143T270 1163T193 1169L203 1229H778Q973
1229 1067 1142T1139 922ZM535 702H643Q740 702 806 763T891 922Q928 1133 717 1133H610L535 702ZM870 344Q889 459 837 531T672 604H516L457 260Q447 204 446 174T456 125T487 101T545 96H598Q703 96 777 164T870 344Z" />
<glyph unicode="C" glyph-name="C" horiz-adv-x="1257" d="M1282 1219L1202 768H1147Q1144 962 1068 1056T852 1151Q785 1151 724 1123T614 1045T526 931T459 790T418 635Q403 553 402 476T415 325T461 198T547 111T676 78Q802 78 913 174T1096 461H1151L1071
10H1018Q1014 105 989 127Q847 -31 604 -31Q504 -31 420 4T278 101T182 247T138 429T147 635Q179 812 274 954T514 1178T827 1260Q935 1260 1021 1218T1159 1102Q1191 1124 1229 1219H1282Z" />
<glyph unicode="D" glyph-name="D" horiz-adv-x="1359" d="M776 1229Q880 1229 967 1206T1116 1142T1223 1044T1290 917T1318 768T1307 604Q1284 476 1224 367T1071 176T847 47T559 0H-14L-2 59Q112 59 151 103T219 299L332 932Q343 995 345 1033T343 1100T318
1143T270 1163T193 1169L203 1229H776ZM1044 614Q1059 697 1062 768T1051 907T1003 1022T908 1099T758 1128H612L471 334Q460 270 457 232T456 165T474 124T511 106T571 100H578Q951 100 1044 614Z" />
<glyph unicode="E" glyph-name="E" horiz-adv-x="1093" d="M1118 1229L1085 934H1032L1030 975Q1028 1007 1026 1025T1016 1064T998 1094T965 1113T915 1125T842 1128H612L537 702H590Q640 702 670 704T727 713T769 732T797 766T818 817T834 891H887L805 412H750Q758
458 761 486T759 537T744 571T709 589T655 598T575 600H520L473 338Q461 271 458 232T459 164T484 123T532 105T610 100H721Q805 100 851 116T918 162T963 256L977 297H1032L963 0H-14L-2 59Q112 59 151 103T219 299L332 932Q343 995 345 1033T343 1100T318 1143T270
1163T193 1169L203 1229H1118Z" />
<glyph unicode="F" glyph-name="F" horiz-adv-x="1040" d="M1149 1229L1114 934H1061L1059 975Q1056 1023 1051 1046T1027 1091T971 1120T870 1128H612L537 702H590Q640 702 670 704T727 713T769 732T797 766T818 817T834 891H887L803 412H750Q758 458 760 486T758
537T743 571T707 589T653 598T573 600H518L465 299Q453 235 451 196T453 127T477 85T525 65T602 59L590 0H-14L-2 59Q112 59 151 103T219 299L332 932Q343 995 345 1033T343 1100T318 1143T270 1163T193 1169L203 1229H1149Z" />
<glyph unicode="G" glyph-name="G" horiz-adv-x="1314" d="M1325 514L1317 455Q1280 455 1260 452T1219 437T1187 399T1163 333T1139 227L1108 66Q1051 66 997 51T902 18T785 -16T614 -31Q446 -31 327 61T162 305T147 635Q179 812 274 954T514 1178T827 1260Q1050
1260 1159 1102Q1191 1124 1229 1219H1282L1202 768H1147Q1141 1151 852 1151Q785 1151 724 1123T614 1045T526 931T459 790T418 635Q403 553 401 475T411 322T453 192T535 102T662 68Q770 68 839 132T928 309Q941 384 915 419T795 455L805 514H1325Z" />
<glyph unicode="H" glyph-name="H" horiz-adv-x="1464" d="M1571 1229L1559 1169Q1445 1169 1406 1126T1339 932L1227 299Q1206 202 1213 149T1252 77T1364 59L1354 0H756L766 59Q825 59 857 66T915 102T953 173T981 299L1036 602H518L465 299Q455 244 451 209T449
145T459 101T486 76T529 62T594 59L582 0H-14L-2 59Q112 59 151 103T219 299L332 932Q343 995 345 1033T343 1100T318 1143T270 1163T193 1169L203 1229H799L788 1169Q729 1169 697 1161T640 1125T604 1055T578 932L537 705H1053L1094 932Q1108 1011 1110 1054T1097
1125T1051 1161T961 1169L973 1229H1571Z" />
<glyph unicode="I" glyph-name="I" horiz-adv-x="700" d="M807 1229L797 1169Q737 1169 703 1161T643 1124T605 1054T578 932L465 299Q450 221 449 177T462 105T510 68T602 59L590 0H-14L-2 59Q112 59 151 103T219 299L332 932Q343 995 345 1033T343 1100T318
1143T270 1163T193 1169L203 1229H807Z" />
<glyph unicode="J" glyph-name="J" horiz-adv-x="698" d="M807 1229L797 1169Q736 1169 702 1162T643 1127T604 1056T578 932L446 203Q417 37 370 -83T262 -271T137 -371T-4 -403Q-87 -403 -144 -365T-201 -268Q-201 -222 -171 -193T-92 -164Q-66 -164 -47 -176T-21
-201T-2 -236Q-1 -239 3 -249T10 -264T18 -277T28 -289T40 -296T57 -299Q69 -299 78 -297T95 -290T108 -278T119 -259T127 -234T134 -201T140 -162T148 -113T158 -55L332 932Q346 1012 347 1055T333 1126T285 1161T193 1169L203 1229H807Z" />
<glyph unicode="K" glyph-name="K" horiz-adv-x="1388" d="M1452 1229L1442 1169Q1399 1169 1360 1160T1293 1141T1221 1101T1151 1052T1063 985L758 745L1147 178Q1186 122 1248 91T1356 59L1346 0H754L764 59Q844 59 865 90T850 178L575 604L506 549L461 299Q450
236 447 197T448 129T471 86T516 66T588 59L578 0H-14L-2 59Q112 59 151 103T219 299L332 932Q343 995 345 1033T343 1100T318 1143T270 1163T193 1169L203 1229H795L782 1169Q676 1169 639 1126T573 932L530 684L940 1004Q1085 1115 1038 1154Q1019 1169 971 1169L981
1229H1452Z" />
<glyph unicode="L" glyph-name="L" horiz-adv-x="1079" d="M1057 297L987 0H-14L-2 59Q112 59 151 103T219 299L332 932Q343 995 345 1033T343 1100T318 1143T270 1163T193 1169L203 1229H807L797 1169Q736 1169 702 1161T643 1125T605 1055T578 932L471 338Q461
283 457 248T456 185T467 141T496 116T541 103T608 100H745Q829 100 875 116T942 162T987 256L1001 297H1057Z" />
<glyph unicode="M" glyph-name="M" horiz-adv-x="1679" d="M1765 1229L1755 1169Q1641 1169 1594 1117T1536 932L1485 299Q1479 217 1481 164T1515 85T1622 59L1610 0H1020L1030 59Q1141 59 1187 115T1245 299L1307 967L750 -12H670L471 983L289 299Q253 174 283
117T426 59L416 0H-57L-45 59Q-19 59 2 62T39 69T70 84T95 103T115 130T132 162T147 201T161 246T176 299L350 932Q387 1064 357 1116T211 1169L221 1229H666L844 340L1346 1229H1765Z" />
<glyph unicode="N" glyph-name="N" horiz-adv-x="1361" d="M1483 1229L1470 1169Q1357 1169 1318 1126T1251 932L1083 -16H975L444 954L328 299Q319 246 315 211T314 148T325 104T353 77T399 63T465 59L455 0H-14L-2 59Q112 59 151 103T219 299L332 932Q343 995
345 1033T343 1100T318 1143T270 1163T193 1169L203 1229H586L1047 387L1143 932Q1155 994 1157 1033T1155 1100T1130 1143T1081 1163T1004 1169L1016 1229H1483Z" />
<glyph unicode="O" glyph-name="O" horiz-adv-x="1396" d="M838 1260Q1016 1260 1147 1173T1334 938T1364 610Q1336 432 1234 286T978 54T651 -31Q474 -31 343 56T155 291T125 618Q153 797 255 943T511 1175T838 1260ZM1094 614Q1106 702 1108 781T1093 928T1044
1045T958 1123T831 1151Q741 1151 665 1108T536 991T448 821T395 614Q375 505 382 408T416 238T506 121T659 78T825 121T954 238T1042 408T1094 614Z" />
<glyph unicode="P" glyph-name="P" horiz-adv-x="1097" d="M1159 877Q1133 728 993 629T639 530H506L465 299Q438 151 463 105T602 59L590 0H-14L-2 59Q112 59 151 103T219 299L332 932Q343 995 345 1033T343 1100T318 1143T270 1163T193 1169L203 1229H754Q867
1229 952 1201T1085 1124T1153 1012T1159 877ZM899 883Q920 998 870 1065T696 1133H610L522 627H608Q727 627 802 696T899 883Z" />
<glyph unicode="Q" glyph-name="Q" horiz-adv-x="1396" d="M1530 -170Q1508 -216 1496 -240T1457 -310T1408 -381T1349 -440T1274 -492T1183 -524T1071 -537Q983 -537 906 -503T774 -421T668 -325T558 -243T436 -209Q382 -209 341 -222T277 -254T237 -292T201
-325T162 -342Q127 -346 108 -325T90 -272Q93 -218 215 -135T496 -8Q363 23 270 115T140 339T125 618Q153 797 255 943T511 1175T838 1260Q1016 1260 1147 1173T1334 938T1364 610Q1337 435 1239 291T990 61T670 -29Q609 -30 526 -59T367 -131Q463 -113 548 -120T693
-150T815 -203T923 -262T1029 -310T1145 -330Q1267 -330 1346 -289T1493 -152L1530 -170ZM1094 614Q1106 702 1108 781T1093 928T1044 1045T958 1123T831 1151Q741 1151 665 1108T536 991T448 821T395 614Q375 505 382 408T416 238T506 121T659 78T825 121T954
238T1042 408T1094 614Z" />
<glyph unicode="R" glyph-name="R" horiz-adv-x="1236" d="M1190 45Q1155 13 1096 -7T969 -27Q765 -27 750 164L735 350Q728 441 703 485T608 530H504L463 299Q452 236 450 198T452 130T475 86T523 66T600 59L588 0H-14L-2 59Q112 59 151 103T219 299L332 932Q343
995 345 1033T343 1100T318 1143T270 1163T193 1169L203 1229H754Q867 1229 952 1202T1085 1128T1153 1018T1159 883Q1139 770 1050 682T825 557Q897 522 938 460T999 297L1028 158Q1038 109 1054 89T1096 68Q1118 68 1144 81T1188 109L1190 45ZM899 883Q920 998
871 1065T698 1133H608L520 627H606Q727 627 802 696T899 883Z" />
<glyph unicode="S" glyph-name="S" horiz-adv-x="1003" d="M999 1247L928 856H874Q868 989 796 1072T604 1155Q513 1155 456 1105T399 977Q399 943 413 915T459 861T518 819T597 774Q607 769 612 766Q654 743 680 728T744 687T805 641T855 590T897 529T922 459T932
375Q932 288 906 218T838 102T738 26T620 -18T496 -31Q400 -31 311 8T170 100Q114 62 84 -10H33L113 430H166Q173 266 266 171T510 76Q605 76 672 130T739 283Q739 321 726 351T677 409T614 455T524 506Q509 514 502 518Q431 556 384 589T294 667T230 771T209 901Q209
1060 325 1160T602 1260Q688 1260 765 1226T879 1149Q927 1189 952 1247H999Z" />
<glyph unicode="T" glyph-name="T" horiz-adv-x="1095" d="M1227 934H1174Q1169 970 1166 989T1155 1033T1136 1069T1107 1094T1063 1113T1000 1122T915 1126H805L659 299Q645 218 644 175T657 104T704 67T795 59L784 0H182L193 59Q309 59 348 102T414 299L559
1126H453Q387 1126 342 1119T267 1100T216 1062T180 1012T145 943Q142 937 141 934H86L180 1229H1223L1227 934Z" />
<glyph unicode="U" glyph-name="U" horiz-adv-x="1388" d="M1518 1229L1505 1169Q1393 1169 1355 1126T1288 932L1204 461Q1161 223 1019 96T657 -31Q431 -31 309 99T227 461L311 932Q319 977 322 1008T326 1065T320 1108T304 1138T275 1157T232 1166T174 1169L184
1229H797L784 1169Q724 1169 691 1162T632 1126T593 1056T565 932L481 463Q417 94 723 94Q852 94 947 185T1075 463L1159 932Q1169 986 1173 1020T1174 1083T1163 1127T1134 1152T1089 1166T1022 1169L1034 1229H1518Z" />
<glyph unicode="V" glyph-name="V" horiz-adv-x="1189" d="M1432 1229L1421 1169Q1326 1169 1279 1135T1165 991L569 -14H483L250 991Q225 1102 190 1135T57 1169L68 1229H674L664 1169Q549 1169 512 1135T494 1014L651 319L1055 1014Q1106 1101 1083 1135T944
1169L954 1229H1432Z" />
<glyph unicode="W" glyph-name="W" horiz-adv-x="1771" d="M2015 1229L2005 1169Q1908 1169 1860 1135T1751 991L1196 -12H1110L973 850L506 -12H420L254 991Q235 1101 198 1135T61 1169L72 1229H680L670 1169Q557 1169 522 1135T502 1014L604 360L1075 1229H1153L1292
360L1647 1014Q1695 1103 1672 1136T1536 1169L1546 1229H2015Z" />
<glyph unicode="X" glyph-name="X" horiz-adv-x="1255" d="M1409 1229L1399 1169Q1347 1169 1308 1159T1233 1124T1175 1078T1113 1012Q1100 998 1094 991L797 670L987 238Q1027 145 1081 102T1227 59L1217 0H604L614 59Q721 59 747 96T735 215L610 506L342 215Q303
173 294 138T314 81T410 59L399 0H-86L-76 59Q14 59 79 103T229 238L567 600L393 991Q354 1078 298 1123T150 1169L160 1229H774L764 1169Q688 1169 653 1152T619 1100T643 1014L756 764L981 1014Q1123 1169 920 1169L930 1229H1409Z" />
<glyph unicode="Y" glyph-name="Y" horiz-adv-x="1214" d="M1438 1229L1430 1169Q1372 1169 1332 1161T1256 1127T1195 1074T1124 991L752 522L713 299Q691 202 698 149T737 77T850 59L838 0H236L246 59Q360 59 400 103T467 299L508 520L299 991Q253 1097 206
1133T63 1169L72 1229H700L690 1169Q583 1169 556 1131T565 1014L723 641L1022 1014Q1091 1095 1078 1132T950 1169L961 1229H1438Z" />
<glyph unicode="Z" glyph-name="Z" horiz-adv-x="1030" d="M1108 1192L311 100H653Q718 100 761 109T831 140T873 187T905 256L920 297H975L905 0H6V49L793 1128H518Q433 1128 383 1109T312 1061T268 975L252 934H197L268 1229H1108V1192Z" />
<glyph unicode="[" glyph-name="bracketleft" horiz-adv-x="612" d="M461 -180H104L383 1389H739L725 1315H535L285 -106H475L461 -180Z" />
<glyph unicode="\" glyph-name="backslash" horiz-adv-x="684" d="M610 -4L514 -37L166 1233L262 1268L610 -4Z" />
<glyph unicode="]" glyph-name="bracketright" horiz-adv-x="612" d="M322 -180H-35L-20 -106H168L418 1315H229L244 1389H600L322 -180Z" />
<glyph unicode="^" glyph-name="asciicircum" horiz-adv-x="964" d="M965 649L920 616L596 965L145 616L106 649L645 1264L965 649Z" />
<glyph unicode="_" glyph-name="underscore" horiz-adv-x="675" d="M645 0L629 -90H-109L-92 0H645Z" />
<glyph unicode="`" glyph-name="grave" horiz-adv-x="614" d="M631 1047L616 1022L313 1149Q298 1155 281 1175T264 1219Q264 1247 285 1267T334 1288Q360 1288 377 1278T428 1237L631 1047Z" />
<glyph unicode="a" glyph-name="a" horiz-adv-x="1062" d="M995 63Q957 27 905 6T801 -16Q734 -16 696 18T645 106Q605 48 534 11T389 -27Q273 -27 197 38T96 209T94 446Q130 643 276 779T606 915Q685 915 760 885H993L868 178Q851 82 903 82Q940 82 995 127V63ZM750
784Q691 823 612 823Q514 823 443 718T342 449Q310 286 336 183T451 80Q523 80 588 159T674 358L750 784Z" />
<glyph unicode="b" glyph-name="b" horiz-adv-x="1028" d="M967 446Q933 251 784 112T453 -27Q384 -27 328 -11T234 33T169 100T131 183T117 277T125 375L217 901Q231 977 235 1021T238 1098T221 1145T183 1165T119 1171L127 1229L510 1278L432 831Q466 867 530
891T647 915Q768 915 849 852T960 682T967 446ZM721 449Q750 616 718 716T586 817Q526 817 476 780T403 678L346 346Q321 208 358 139T469 70Q652 70 721 449Z" />
<glyph unicode="c" glyph-name="c" horiz-adv-x="849" d="M846 715Q838 669 811 643T739 616Q697 616 672 646T649 723Q653 827 584 827Q514 827 446 722T342 422Q314 265 362 176T530 86Q645 86 762 203L799 139Q647 -27 446 -27Q258 -27 156 106T92 440Q113
552 171 645T303 796T452 884T594 915Q668 915 723 895T804 844T841 780T846 715Z" />
<glyph unicode="d" glyph-name="d" horiz-adv-x="1073" d="M1073 1278L879 178Q860 82 913 82Q948 82 1006 127V63Q919 -16 811 -16Q686 -16 655 106Q615 48 542 11T393 -27Q275 -27 198 38T96 209T94 446Q130 642 277 778T608 915Q702 915 776 874L782 907Q795
973 801 1015T806 1088T799 1134T775 1159T738 1169T682 1171L688 1229L1073 1278ZM760 784Q693 823 614 823Q513 823 443 718T342 449Q309 286 337 183T461 80Q531 80 596 157T684 358L760 784Z" />
<glyph unicode="e" glyph-name="e" horiz-adv-x="888" d="M852 729Q852 668 823 610T733 498T568 399T328 328Q328 209 383 148T547 86Q601 86 672 120T795 205L823 139Q752 64 654 19T446 -27Q286 -27 186 79T86 350Q86 467 131 573T250 754T418 871T608 915Q721
915 786 861T852 729ZM670 727Q670 771 650 796T592 821Q503 821 429 705T332 408Q416 428 483 467T589 551T648 641T670 727Z" />
<glyph unicode="f" glyph-name="f" horiz-adv-x="630" d="M823 1157Q823 1112 793 1083T717 1053Q659 1053 639 1114Q631 1137 626 1148T610 1169T582 1180Q565 1180 553 1176T531 1159T517 1135T506 1098T499 1052T491 992T481 924L475 885H655L641 801H459L342
141Q292 -141 179 -273T-88 -406Q-162 -406 -212 -370T-262 -283Q-262 -237 -232 -208T-156 -178Q-121 -178 -103 -197T-74 -250Q-67 -269 -62 -279T-47 -297T-20 -305Q-3 -305 9 -300T30 -282T44 -255T55 -216T63 -168T71 -109T82 -43L231 801H94L109 885H248Q293
1076 395 1178T649 1280Q723 1280 773 1244T823 1157Z" />
<glyph unicode="g" glyph-name="g" horiz-adv-x="915" d="M1036 793Q1033 754 1005 727T942 702Q909 705 894 723T878 762T865 798T825 815Q812 815 774 799Q835 714 815 596Q794 468 678 386T412 301Q240 299 240 240Q240 213 276 199T424 170Q635 143 721 69T797
-111Q786 -248 653 -328T336 -408Q147 -408 34 -344T-63 -184Q-53 -130 0 -92T113 -45L172 -68Q136 -83 106 -109T70 -168Q65 -205 86 -234T149 -279T240 -304T348 -313Q479 -313 554 -270T635 -172Q641 -115 587 -86T381 -37Q188 -11 113 35T37 166Q37 230 91
276T246 342Q164 380 126 460T104 621Q130 752 246 832T518 913Q573 913 635 893T729 844Q770 873 821 892T907 911Q971 911 1005 877T1036 793ZM571 493T592 608T587 781T502 840Q443 840 397 782T330 608Q309 494 335 435T422 375Q480 375 525 434Z" />
<glyph unicode="h" glyph-name="h" horiz-adv-x="1071" d="M1001 63Q962 27 910 6T807 -16Q728 -16 687 28T645 143Q645 194 691 396T737 655Q737 720 712 748T639 776Q610 776 571 752T492 684T417 565T367 399L295 0H68L227 901Q241 977 245 1021T248 1098T231
1145T193 1165T129 1171L137 1229L520 1278L420 707Q480 802 567 858T741 915Q853 915 908 845T963 664Q963 599 916 382T868 137Q868 82 907 82Q926 82 955 97T999 127L1001 63Z" />
<glyph unicode="i" glyph-name="i" horiz-adv-x="544" d="M475 63Q438 27 385 6T281 -16Q203 -16 161 27T119 141Q119 188 177 453T236 754Q236 809 197 809Q178 809 149 794T104 764V827Q142 863 195 885T299 907Q378 907 419 863T461 748Q461 700 403 436T344
137Q344 109 352 96T383 82Q402 82 430 96T475 125V63ZM287 1155Q293 1208 332 1244T424 1280Q477 1280 510 1244T537 1155Q530 1102 491 1066T399 1030T314 1066T287 1155Z" />
<glyph unicode="j" glyph-name="j" horiz-adv-x="512" d="M449 700L356 168Q256 -406 -84 -406Q-155 -406 -204 -370T-254 -283Q-254 -237 -224 -209T-147 -180Q-123 -180 -106 -191T-82 -213T-66 -246Q-64 -250 -58 -262T-49 -279T-40 -291T-26 -302T-8 -305Q9
-305 21 -300T42 -281T56 -252T67 -207T76 -152T86 -81T100 2L225 713Q243 809 190 809Q172 809 143 794T98 764L96 827Q135 863 188 885T293 907Q384 907 424 849T449 700ZM285 1155Q291 1208 330 1244T422 1280Q475 1280 508 1244T535 1155Q528 1102 489 1066T397
1030T312 1066T285 1155Z" />
<glyph unicode="k" glyph-name="k" horiz-adv-x="993" d="M997 733Q990 699 966 673T905 647Q874 647 857 662T834 700T822 744T797 781T745 797Q700 797 637 745T451 555Q512 580 543 580Q628 580 673 541T735 410L778 164Q785 119 797 104T836 88Q872 88 907
137L946 98Q868 -16 725 -16Q548 -16 539 170L528 408Q525 457 512 478T465 500Q425 500 377 463L295 0H68L227 901Q241 977 245 1021T248 1098T231 1145T193 1165T129 1171L137 1229L520 1278L397 588Q464 672 509 722T607 820T712 888T819 909Q916 909 963 854T997
733Z" />
<glyph unicode="l" glyph-name="l" horiz-adv-x="532" d="M528 1278L334 176Q317 82 369 82Q388 82 416 96T461 125L463 63Q424 27 372 6T268 -16Q176 -16 136 42T111 190L236 901Q247 964 252 1004T258 1076T251 1125T228 1153T192 1168T137 1171L145 1229L528 1278Z" />
<glyph unicode="m" glyph-name="m" horiz-adv-x="1607" d="M1538 63Q1499 27 1446 6T1343 -16Q1265 -16 1224 28T1182 143Q1182 194 1228 396T1274 655Q1274 717 1253 744T1188 772Q1162 772 1127 748T1053 681T981 563T932 399L860 0H633L737 584Q756 688 733
730T657 772Q632 772 596 749T522 683T450 564T401 399L330 0H102L229 711Q237 755 229 781T195 807Q154 807 102 762L100 825Q189 905 297 905Q380 905 421 854T455 707Q516 804 596 859T760 915Q857 915 912 854T971 696Q1034 797 1115 856T1286 915Q1395 915
1447 847T1499 672Q1499 604 1452 384T1405 137Q1405 82 1444 82Q1462 82 1491 97T1536 127L1538 63Z" />
<glyph unicode="n" glyph-name="n" horiz-adv-x="1105" d="M1036 63Q997 27 945 6T842 -16Q763 -16 722 28T680 143Q680 194 726 396T772 655Q772 720 747 748T674 776Q645 776 606 752T527 684T451 565T401 399L330 0H102L229 711Q237 755 229 781T195 807Q154
807 102 762L100 825Q140 861 193 883T297 905Q380 905 421 854T455 707Q515 802 601 858T776 915Q888 915 942 845T997 664Q997 599 950 382T903 137Q903 82 942 82Q961 82 990 97T1034 127L1036 63Z" />
<glyph unicode="o" glyph-name="o" horiz-adv-x="1048" d="M987 444Q972 348 926 261T811 108T654 4T467 -35Q346 -35 253 30T116 206T92 444Q113 573 185 682T371 857T614 924Q704 924 781 885T908 781T980 628T987 444ZM739 444Q769 626 737 727T606 829Q509
829 441 728T340 444Q307 265 342 162T475 59Q572 59 640 161T739 444Z" />
<glyph unicode="p" glyph-name="p" horiz-adv-x="1097" d="M1038 446Q1016 315 954 209T795 38T586 -27Q514 -27 457 7T375 98L338 -104Q328 -160 324 -192T320 -254T327 -296T349 -319T386 -331T442 -334L434 -391H-82L-74 -334Q-24 -334 4 -327T53 -292T85 -223T111
-104L236 598Q172 473 61 348L6 387Q122 516 213 688T336 1057H545L510 868Q589 915 694 915Q879 915 975 780T1038 446ZM791 444Q821 615 786 719T649 823Q566 823 496 778L412 311Q393 205 437 143T551 80Q639 80 698 167T791 444Z" />
<glyph unicode="q" glyph-name="q" horiz-adv-x="1044" d="M1004 885L829 -104Q820 -159 816 -190T811 -251T818 -294T840 -318T877 -331T934 -334L924 -391H410L418 -334Q468 -334 495 -327T544 -293T576 -225T602 -104L635 82Q594 33 528 3T393 -27Q275 -27
198 38T96 209T94 446Q130 643 276 779T606 915Q691 915 770 885H1004ZM760 784Q697 823 612 823Q514 823 443 718T342 449Q309 286 337 183T461 80Q531 80 596 157T684 358L760 784Z" />
<glyph unicode="r" glyph-name="r" horiz-adv-x="798" d="M842 752Q836 712 808 677T725 641Q690 641 668 664T643 717Q642 738 641 746T631 761T606 768Q554 768 489 644T387 313L330 0H102L229 711Q237 755 229 781T195 807Q154 807 102 762L100 825Q140 861
193 883T297 905Q381 905 422 852T453 694Q497 802 564 857T702 913Q781 913 817 864T842 752Z" />
<glyph unicode="s" glyph-name="s" horiz-adv-x="729" d="M727 750Q724 719 703 697T647 674Q631 674 618 679T598 691T583 712T572 735T561 762Q537 838 459 838Q412 838 375 811T332 733Q328 694 354 657T444 563L549 477Q608 430 636 362T651 221Q632 107 544
40T328 -27Q255 -27 190 -7T85 43T23 109T6 176Q12 211 37 232T96 254Q133 254 151 231T186 160Q223 61 336 61Q389 61 426 91T469 170Q475 221 448 260T348 365L246 455Q126 558 147 694Q155 734 176 771T235 841T333 895T469 915Q585 915 659 862T727 750Z" />
<glyph unicode="t" glyph-name="t" horiz-adv-x="645" d="M682 885L668 801H469L373 258Q357 173 370 134T430 94Q495 94 588 188L592 109Q481 -18 322 -18Q216 -18 169 54T145 262L242 801H86L98 885H256L297 1128H526L483 885H682Z" />
<glyph unicode="u" glyph-name="u" horiz-adv-x="1093" d="M1028 66Q991 30 938 8T834 -14Q750 -14 710 37T676 184Q616 89 528 32T352 -25Q242 -25 188 46T133 227Q133 292 184 508T236 752Q236 807 197 807Q178 807 150 793T104 764V827Q142 863 195 885T299
907Q378 907 419 863T461 748Q461 696 409 494T356 236Q356 171 382 143T457 115Q486 115 524 139T603 207T678 326T729 492L799 885H1026L901 180Q884 84 936 84Q974 84 1028 129V66Z" />
<glyph unicode="v" glyph-name="v" horiz-adv-x="956" d="M907 614Q907 521 887 429T825 256T728 111T593 12T426 -25Q354 -25 298 -6T207 47T151 125T127 219T131 319Q144 389 186 474T268 634T317 748Q278 772 241 783T165 784T102 733L72 752Q90 823 134 864T242
905Q268 905 301 898T358 885T413 882T473 901H539Q524 824 460 644T369 313Q348 198 379 141T487 84Q543 84 599 121T700 220T773 374T801 567Q801 624 791 668T766 737T738 781T715 817T709 852Q713 883 736 898T786 913Q808 913 828 900T866 855T896 762T907
614Z" />
<glyph unicode="w" glyph-name="w" horiz-adv-x="1413" d="M1358 586Q1358 420 1304 280T1155 58T942 -25Q786 -25 702 100Q643 44 561 10T403 -25Q254 -25 179 71T131 319Q146 403 224 550T317 748Q279 771 242 781T165 782T102 733L72 752Q90 823 134 864T242
905Q268 905 301 898T358 885T413 882T473 901H539Q524 821 459 636T369 313Q348 200 380 142T483 84Q523 84 571 110T655 176Q602 296 602 459Q602 573 634 676T730 849T877 918Q947 918 988 867T1030 711Q1030 604 972 454T829 199Q843 143 882 111T973 78Q1052
78 1117 149T1216 328T1251 551Q1251 613 1241 659T1217 730T1190 772T1168 807T1161 844Q1165 880 1187 896T1239 913Q1260 913 1279 898T1317 849T1347 747T1358 586ZM938 715Q938 803 905 803Q867 803 836 686T799 420Q795 345 801 295Q856 376 897 507T938
715Z" />
<glyph unicode="x" glyph-name="x" horiz-adv-x="907" d="M971 782Q968 741 940 711T877 686Q849 691 836 707T822 739T815 769T791 782Q759 782 706 711T584 496L672 184Q686 139 702 120T743 100Q764 100 787 119T827 170L874 141Q844 71 787 28T653 -16Q570
-16 519 25T438 180L401 301Q321 145 248 65T94 -16Q30 -16 -1 20T-31 109Q-29 144 -2 176T59 205Q89 201 103 185T118 151T126 120T150 106Q179 106 241 193T369 416L287 705Q274 751 259 769T217 788Q176 788 133 719L86 748Q117 819 173 862T307 905Q390 905
440 865T520 709L549 612Q626 761 696 833T846 905Q908 905 940 869T971 782Z" />
<glyph unicode="y" glyph-name="y" horiz-adv-x="917" d="M862 686Q862 577 823 451T716 204T558 -28T367 -223T157 -357T-53 -408Q-167 -408 -223 -359T-264 -256Q-244 -192 -180 -195Q-156 -196 -139 -212T-110 -247T-67 -281T18 -297Q97 -297 188 -235T326
-102Q325 52 318 179T301 395T277 553T248 663T213 731T176 766T137 776Q93 776 57 715L20 756Q48 825 104 866T229 907Q372 907 441 771T520 309Q522 244 522 86Q748 387 748 649Q748 695 736 730T710 784T684 823T674 866Q675 891 698 910T750 930Q862 930 862
686Z" />
<glyph unicode="z" glyph-name="z" horiz-adv-x="821" d="M825 868Q817 802 696 684Q324 322 244 207Q292 223 344 223Q398 223 443 209T513 178T576 147T653 133Q724 133 748 223H803Q799 143 778 75T709 -43T596 -92Q543 -92 499 -73T425 -26T366 29T303 76T231
96Q197 96 173 84T135 54T110 18T84 -13T49 -27Q23 -29 5 -7T-6 55Q9 126 214 334T582 680Q542 668 489 668Q434 668 368 688T258 709Q225 709 200 690T168 631H113Q116 749 175 832T319 915Q367 915 413 897T491 858T559 819T629 801Q667 801 693 819T729 858T756
897T791 915Q807 915 817 901T825 868Z" />
<glyph unicode="{" glyph-name="braceleft" horiz-adv-x="622" d="M467 -184L428 -227Q371 -191 342 -168T282 -109T243 -30T233 74T248 223Q261 295 264 349T261 440T245 502T213 545T171 572T119 594L125 627Q155 637 170 642T210 659T248 682T281 713T312 756T338
814T363 891T383 989Q395 1060 410 1114T450 1211T496 1283T559 1341T632 1390T723 1440L745 1389Q708 1366 683 1346T640 1303T614 1260T597 1208T586 1149T576 1073T561 983Q548 910 531 855T489 761T442 697T384 653T321 626T248 606Q288 596 313 587T367 559T409
516T434 452T443 358T428 229Q421 188 411 139T394 62T384 2T382 -52T393 -96T420 -140T467 -184Z" />
<glyph unicode="|" glyph-name="bar" horiz-adv-x="532" d="M502 1405L219 -197H121L403 1405H502Z" />
<glyph unicode="}" glyph-name="braceright" horiz-adv-x="622" d="M590 586Q555 575 538 569T492 548T449 518T414 477T380 416T353 334T328 223Q313 137 291 75T244 -30T178 -108T97 -168T-10 -227L-33 -176Q5 -153 30 -133T74 -90T101 -47T118 5T129 63T140
139T154 229Q167 302 184 357T224 451T271 515T328 559T392 586T465 606Q431 615 408 622T360 644T319 675T291 721T274 784T273 870T287 983Q294 1023 305 1073T321 1150T331 1210T333 1264T321 1308T294 1353T246 1397L285 1440Q340 1404 370 1381T429 1320T468
1241T478 1137T463 989T448 842T454 744T486 682T533 645T596 618L590 586Z" />
<glyph unicode="~" glyph-name="asciitilde" horiz-adv-x="886" d="M803 639Q785 508 730 444T590 379Q559 379 519 398T447 441T375 484T305 504Q235 504 190 387H133Q151 518 206 582T346 647Q377 647 417 628T490 585T561 542T631 522Q668 522 696 551T748 639H803Z" />
</font>
</defs>
</svg>
